<?xml version="1.0" encoding="UTF-8"?>
<svg width="40" height="40" viewBox="0 0 40 40" fill="none" xmlns="http://www.w3.org/2000/svg">
  <circle cx="20" cy="20" r="20" fill="#9B6B9E"/>
  <path d="M15 15C15 12 25 12 25 15C25 18 20 28 20 28C20 28 15 18 15 15Z" fill="#D4A6D6"/>
  <circle cx="17" cy="16" r="1.5" fill="#333"/>
  <circle cx="23" cy="16" r="1.5" fill="#333"/>
  <path d="M18 19C19 20 21 20 22 19" stroke="#333" stroke-width="1.5" stroke-linecap="round"/>
  <path d="M16 22C16 25 16 28 16 31" stroke="#9B6B9E" stroke-width="2" stroke-linecap="round"/>
  <path d="M20 24C20 27 20 30 20 33" stroke="#9B6B9E" stroke-width="2" stroke-linecap="round"/>
  <path d="M24 22C24 25 24 28 24 31" stroke="#9B6B9E" stroke-width="2" stroke-linecap="round"/>
</svg> 