<?xml version="1.0" encoding="UTF-8"?>
<svg width="24" height="24" viewBox="0 0 24 24" fill="none" xmlns="http://www.w3.org/2000/svg">
  <path d="M12 2C6.48 2 2 6.48 2 12C2 17.52 6.48 22 12 22C17.52 22 22 17.52 22 12C22 6.48 17.52 2 12 2Z" fill="url(#rainbow-gradient)"/>
  <path d="M12 6C8.69 6 6 8.69 6 12C6 15.31 8.69 18 12 18C15.31 18 18 15.31 18 12C18 8.69 15.31 6 12 6Z" fill="white"/>
  <path d="M12 8C9.79 8 8 9.79 8 12C8 14.21 9.79 16 12 16C14.21 16 16 14.21 16 12C16 9.79 14.21 8 12 8Z" fill="url(#rainbow-gradient)"/>
  <defs>
    <linearGradient id="rainbow-gradient" x1="0" y1="0" x2="24" y2="24" gradientUnits="userSpaceOnUse">
      <stop offset="0%" stop-color="#FF0000"/>
      <stop offset="16.67%" stop-color="#FF7F00"/>
      <stop offset="33.33%" stop-color="#FFFF00"/>
      <stop offset="50%" stop-color="#00FF00"/>
      <stop offset="66.67%" stop-color="#0000FF"/>
      <stop offset="83.33%" stop-color="#4B0082"/>
      <stop offset="100%" stop-color="#9400D3"/>
    </linearGradient>
  </defs>
</svg> 